# xmcd
#
# Track frame offsets:
#	150
#	12770
#	24223
#	37282
#	50879
#	63214
#	75760
#	90759
#	106109
#	119325
#	131801
#	144318
#	156791
#	169909
#	183892
#	195706
#	209804
#	224944
#	240634
#	252751
#
# Disc length: 3561 seconds
#
# Revision: 1
# Processed by: cddbd v1.5.2PL0 Copyright (c) Steve Scherf et al.
# Submitted via: audiograbber 1.83.01
#
DISCID=140de714
DTITLE=Blind Lemon Jefferson - 1928/1929
DYEAR=1900
DGENRE=blues
TTITLE0=Blind Lemon's penitentiary blues
TTITLE1='Lectric chair blues
TTITLE2=See that my grave is kept clean
TTITLE3=Lemon's worried blues
TTITLE4=Balky mule blues
TTITLE5=Prison cell blues
TTITLE6=Lockstep blues
TTITLE7=Hangman's blues
TTITLE8=Happy new year blues
TTITLE9=DB blues
TTITLE10=Competition bed blues
TTITLE11=Oil well blues
TTITLE12=Big night blues
TTITLE13=Bed spring blues
TTITLE14=Yo yo blues
TTITLE15=Mosquito moan
TTITLE16=Pneumonia blues
TTITLE17=Long distance moan
TTITLE18=That crawlin' baby blues
TTITLE19=Bootin' me 'bout
EXTD=
EXTT0=
EXTT1=
EXTT2=
EXTT3=
EXTT4=
EXTT5=
EXTT6=
EXTT7=
EXTT8=
EXTT9=
EXTT10=
EXTT11=
EXTT12=
EXTT13=
EXTT14=
EXTT15=
EXTT16=
EXTT17=
EXTT18=
EXTT19=
PLAYORDER=
